<svg xmlns="http://www.w3.org/2000/svg" viewBox="0 0 200 200" width="200" height="200">
  <defs>
    <linearGradient id="clipboardGradient" x1="0%" y1="0%" x2="100%" y2="100%">
      <stop offset="0%" style="stop-color:#3b82f6;stop-opacity:1" />
      <stop offset="100%" style="stop-color:#2563eb;stop-opacity:1" />
    </linearGradient>
    <linearGradient id="checkGradient" x1="0%" y1="0%" x2="100%" y2="100%">
      <stop offset="0%" style="stop-color:#10b981;stop-opacity:1" />
      <stop offset="100%" style="stop-color:#059669;stop-opacity:1" />
    </linearGradient>
    <linearGradient id="accentGradient" x1="0%" y1="0%" x2="100%" y2="100%">
      <stop offset="0%" style="stop-color:#f59e0b;stop-opacity:1" />
      <stop offset="100%" style="stop-color:#d97706;stop-opacity:1" />
    </linearGradient>
    <filter id="shadow">
      <feDropShadow dx="0" dy="4" stdDeviation="8" flood-opacity="0.2"/>
    </filter>
  </defs>

  <!-- Background Circle with subtle gradient -->
  <circle cx="100" cy="100" r="90" fill="url(#clipboardGradient)" opacity="0.08"/>

  <!-- Clipboard Main Body -->
  <rect x="55" y="50" width="90" height="120" rx="8"
        fill="url(#clipboardGradient)"
        filter="url(#shadow)"/>

  <!-- Clipboard Paper/Document -->
  <rect x="62" y="65" width="76" height="100" rx="4"
        fill="#ffffff"
        opacity="0.95"/>

  <!-- Clipboard Clip at Top -->
  <rect x="85" y="42" width="30" height="20" rx="4"
        fill="url(#accentGradient)"/>
  <rect x="88" y="45" width="24" height="12" rx="2"
        fill="#ffffff"
        opacity="0.3"/>

  <!-- Checkmark Items on Paper -->

  <!-- Item 1 - Completed -->
  <circle cx="75" cy="85" r="6" fill="url(#checkGradient)" opacity="0.9"/>
  <path d="M 72 85 L 74 87 L 78 83"
        stroke="#ffffff"
        stroke-width="2"
        fill="none"
        stroke-linecap="round"
        stroke-linejoin="round"/>
  <line x1="88" y1="85" x2="125" y2="85"
        stroke="#3b82f6"
        stroke-width="2"
        stroke-linecap="round"
        opacity="0.3"/>

  <!-- Item 2 - Completed -->
  <circle cx="75" cy="105" r="6" fill="url(#checkGradient)" opacity="0.9"/>
  <path d="M 72 105 L 74 107 L 78 103"
        stroke="#ffffff"
        stroke-width="2"
        fill="none"
        stroke-linecap="round"
        stroke-linejoin="round"/>
  <line x1="88" y1="105" x2="125" y2="105"
        stroke="#3b82f6"
        stroke-width="2"
        stroke-linecap="round"
        opacity="0.3"/>

  <!-- Item 3 - In Progress (partial circle) -->
  <circle cx="75" cy="125" r="6"
          fill="none"
          stroke="url(#accentGradient)"
          stroke-width="2"
          opacity="0.8"/>
  <line x1="88" y1="125" x2="125" y2="125"
        stroke="#3b82f6"
        stroke-width="2"
        stroke-linecap="round"
        opacity="0.2"/>

  <!-- Item 4 - Pending (empty circle) -->
  <circle cx="75" cy="145" r="6"
          fill="none"
          stroke="#94a3b8"
          stroke-width="2"
          opacity="0.5"/>
  <line x1="88" y1="145" x2="125" y2="145"
        stroke="#94a3b8"
        stroke-width="2"
        stroke-linecap="round"
        opacity="0.2"/>

  <!-- Decorative accent dots -->
  <circle cx="100" cy="45" r="2" fill="url(#checkGradient)" opacity="0.6"/>
  <circle cx="108" cy="48" r="1.5" fill="url(#accentGradient)" opacity="0.6"/>
  <circle cx="92" cy="48" r="1.5" fill="url(#accentGradient)" opacity="0.6"/>
</svg>
