<svg xmlns="http://www.w3.org/2000/svg" viewBox="0 0 200 200" width="200" height="200">
  <defs>
    <linearGradient id="gradient1" x1="0%" y1="0%" x2="100%" y2="100%">
      <stop offset="0%" style="stop-color:#667eea;stop-opacity:1" />
      <stop offset="100%" style="stop-color:#764ba2;stop-opacity:1" />
    </linearGradient>
    <linearGradient id="gradient2" x1="0%" y1="0%" x2="100%" y2="0%">
      <stop offset="0%" style="stop-color:#f093fb;stop-opacity:1" />
      <stop offset="100%" style="stop-color:#f5576c;stop-opacity:1" />
    </linearGradient>
    <linearGradient id="gradient3" x1="0%" y1="100%" x2="100%" y2="0%">
      <stop offset="0%" style="stop-color:#4facfe;stop-opacity:1" />
      <stop offset="100%" style="stop-color:#00f2fe;stop-opacity:1" />
    </linearGradient>
  </defs>

  <!-- Background Circle -->
  <circle cx="100" cy="100" r="95" fill="url(#gradient1)" opacity="0.1"/>

  <!-- Main Quiz Icon - Document/Paper shape -->
  <rect x="50" y="40" width="100" height="130" rx="8" fill="url(#gradient1)" opacity="0.9"/>

  <!-- Paper fold effect -->
  <path d="M 130 40 L 130 60 L 150 60 L 150 40 Z" fill="url(#gradient1)" opacity="0.6"/>
  <path d="M 130 40 L 130 60 L 150 60 Z" fill="#ffffff" opacity="0.2"/>

  <!-- Question marks styled as quiz questions -->
  <circle cx="75" cy="70" r="4" fill="url(#gradient3)"/>
  <circle cx="100" cy="70" r="4" fill="url(#gradient3)"/>
  <circle cx="125" cy="70" r="4" fill="url(#gradient3)"/>

  <!-- Chart bars representing statistics/growth -->
  <rect x="65" y="110" width="12" height="35" rx="2" fill="url(#gradient2)" opacity="0.8"/>
  <rect x="85" y="95" width="12" height="50" rx="2" fill="url(#gradient2)" opacity="0.9"/>
  <rect x="105" y="85" width="12" height="60" rx="2" fill="url(#gradient2)"/>
  <rect x="125" y="75" width="12" height="70" rx="2" fill="url(#gradient3)"/>

  <!-- Trend line overlay -->
  <path d="M 71 117 L 91 102 L 111 92 L 131 82"
        stroke="#ffffff"
        stroke-width="3"
        fill="none"
        stroke-linecap="round"
        stroke-linejoin="round"
        opacity="0.8"/>

  <!-- Decorative dots -->
  <circle cx="71" cy="117" r="3.5" fill="#ffffff" opacity="0.9"/>
  <circle cx="91" cy="102" r="3.5" fill="#ffffff" opacity="0.9"/>
  <circle cx="111" cy="92" r="3.5" fill="#ffffff" opacity="0.9"/>
  <circle cx="131" cy="82" r="3.5" fill="#ffffff"/>

  <!-- Check mark at top (success symbol) -->
  <path d="M 95 58 L 100 63 L 110 53"
        stroke="url(#gradient3)"
        stroke-width="3"
        fill="none"
        stroke-linecap="round"
        stroke-linejoin="round"/>
</svg>
